#!OML:ASF E:\basketball\basketball\Project 1\Capture day 1\Session 1\Subject.ASF
:FULLY-SPECIFIED
:DEGREES
17
root -32.1904 14.3191 -15.6641 0.91215 53.3485 -5.81052
lowerback 22.7564 8.40348 -4.74282
upperback 8.68593 10.2158 0.4691
thorax -3.85805 5.08342 0.486584
lowerneck -1.26006 -14.8459 -19.3678
upperneck -18.6817 -16.9885 35.5384
head 0.556954 -9.08053 14.1054
rclavicle 6.24184e-014 -4.81059e-014
rhumerus -28.2433 27.5988 -102.482
rradius 81.5147
rwrist -10.4318
rhand -20.72 23.3375
rfingers 7.12502
rthumb 5.64466 -6.56729
lclavicle 6.24184e-014 -4.81059e-014
lhumerus -27.1764 -10.4086 80.0935
lradius 93.0849
lwrist 47.4644
lhand 9.39192 31.6942
lfingers 7.12502
lthumb 34.5494 58.3543
rfemur -0.698086 -11.6605 6.18631
rtibia 41.2423
rfoot -30.8211 -14.4207
rtoes -21.613
lfemur -27.7513 15.7137 8.89229
ltibia 40.6427
lfoot -4.49112 -2.10431
ltoes -28.5184
18
root -32.0314 14.2096 -15.6499 1.2312 52.4159 -5.20856
lowerback 22.9426 9.18679 -5.44891
upperback 8.94795 11.0407 -0.218942
thorax -3.67289 5.48728 -0.0926715
lowerneck 0.00984213 -15.4203 -19.7929
upperneck -20.5123 -17.5082 37.8317
head 0.42026 -9.61832 15.1618
rclavicle 5.83433e-014 -2.88238e-014
rhumerus -26.6933 25.6133 -101.673
rradius 80.7937
rwrist -10.7921
rhand -20.6958 23.343
rfingers 7.12502
rthumb 5.66807 -6.56119
lclavicle 5.83433e-014 -2.88238e-014
lhumerus -24.8808 -9.95227 78.4564
lradius 93.8555
lwrist 48.126
lhand 12.4969 24.3375
lfingers 7.12502
lthumb 37.4905 50.2736
rfemur -2.00502 -13.7479 4.76755
rtibia 44.4128
rfoot -30.1243 -14.2504
rtoes -20.9721
lfemur -26.68 16.3619 9.20415
ltibia 41.3788
lfoot -5.53522 -3.3805
ltoes -32.5937
19
root -31.8813 14.1116 -15.6423 1.7806 51.7758 -4.07412
lowerback 23.5752 9.83047 -6.46899
upperback 9.07914 11.5714 -0.915628
thorax -3.87728 5.74354 -0.525814
lowerneck 0.916046 -15.9336 -20.0124
upperneck -21.4053 -18.1427 39.3694
head 0.506403 -10.1378 15.7949
rclavicle -1.92821e-014 1.93318e-014
rhumerus -25.2957 24.4017 -101.059
rradius 79.7376
rwrist -11.9211
rhand -20.6442 23.3895
rfingers 7.12502
rthumb 5.71791 -6.51339
lclavicle -1.92821e-014 1.93318e-014
lhumerus -23.2547 -9.32396 77.1023
lradius 94.8403
lwrist 48.7118
lhand 13.4286 22.5775
lfingers 7.12502
lthumb 38.3705 48.2749
rfemur -2.95961 -17.1805 2.33787
rtibia 47.564
rfoot -29.029 -12.6356
rtoes -20.4274
lfemur -25.9376 17.2348 8.80657
ltibia 42.7449
lfoot -6.82938 -5.18764
ltoes -35.9251
20
root -31.7396 14.0537 -15.6231 1.79957 50.8967 -3.07232
lowerback 24.6735 10.5918 -7.74258
upperback 9.29859 12.1424 -1.41598
thorax -4.28793 6.01169 -0.723502
lowerneck 1.63454 -16.4276 -19.9216
upperneck -22.3035 -18.714 40.4757
head 0.504486 -10.6126 16.2023
rclavicle -7.46312e-014 3.44394e-014
rhumerus -23.8897 23.4845 -100.313
rradius 78.2348
rwrist -13.2453
rhand -20.5276 23.5776
rfingers 7.12502
rthumb 5.83048 -6.32223
lclavicle -7.46312e-014 3.44394e-014
lhumerus -21.5742 -8.27127 76.1767
lradius 95.8419
lwrist 49.3213
lhand 14.3267 23.457
lfingers 7.12502
lthumb 39.2175 48.9144
rfemur -3.57097 -15.3814 2.01529
rtibia 50.1114
rfoot -27.4012 -16.329
rtoes -21.1881
lfemur -24.9312 18.6163 8.40058
ltibia 44.3643
lfoot -7.99896 -6.66664
ltoes -36.842
21
root -31.613 13.9864 -15.6003 1.9179 50.0863 -2.05875
lowerback 25.6848 11.3689 -9.37285
upperback 9.50595 12.6267 -1.72837
thorax -4.76691 6.22723 -0.533086
lowerneck 2.63235 -16.721 -19.8801
upperneck -23.6794 -18.8989 41.5795
head 0.224123 -10.9475 16.8092
rclavicle -5.75482e-014 5.11871e-014
rhumerus -22.6783 22.2666 -99.4597
rradius 76.5151
rwrist -13.6878
rhand -20.4165 23.7876
rfingers 7.12502
rthumb 5.93769 -6.10923
lclavicle -5.75482e-014 5.11871e-014
lhumerus -19.9224 -6.86252 75.7664
lradius 96.8339
lwrist 49.9495
lhand 15.1954 24.227
lfingers 7.12502
lthumb 40.0356 49.4423
rfemur -4.33513 -14.7692 1.25214
rtibia 52.6477
rfoot -25.7102 -18.252
rtoes -21.5887
lfemur -24.3517 20.011 7.92501
ltibia 46.114
lfoot -8.39737 -7.28976
ltoes -34.3953
22
root -31.5015 13.936 -15.5742 2.58945 49.9658 -0.752889
lowerback 26.7007 11.8369 -11.0489
upperback 9.55075 12.6483 -2.09924
thorax -5.3874 6.22495 -0.263435
lowerneck 3.26693 -16.8644 -20.0087
upperneck -24.4161 -19.0012 42.4765
head 0.142158 -11.158 17.3162
rclavicle 9.92929e-014 -1.35174e-014
rhumerus -21.8684 20.7543 -98.8936
rradius 74.8057
rwrist -13.8583
rhand -20.3264 23.9683
rfingers 7.12502
rthumb 6.02466 -5.92603
lclavicle 9.92929e-014 -1.35174e-014
lhumerus -18.4762 -5.48599 75.4628
lradius 97.806
lwrist 50.673
lhand 15.6806 25.2779
lfingers 7.12502
lthumb 40.4919 50.3537
rfemur -5.12789 -15.4507 0.016015
rtibia 54.9486
rfoot -23.7242 -18.6786
rtoes -22.6964
lfemur -24.4116 20.6648 7.02516
ltibia 47.7093
lfoot -8.83922 -7.54272
ltoes -32.3801
23
root -31.3861 13.897 -15.5359 3.28828 50.2438 0.255757
lowerback 27.381 12.0523 -12.4122
upperback 9.56427 12.4484 -2.46168
thorax -5.80484 6.12525 -0.0102392
lowerneck 3.65927 -16.9498 -20.0257
upperneck -24.6204 -19.1253 43.0842
head 0.18168 -11.3218 17.6131
rclavicle 6.36111e-015 5.38706e-014
rhumerus -21.2986 19.3308 -98.508
rradius 73.0664
rwrist -14.6319
rhand -20.2315 24.1477
rfingers 7.12502
rthumb 6.11637 -5.74397
lclavicle 6.36111e-015 5.38706e-014
lhumerus -16.7321 -4.26542 75.235
lradius 98.5276
lwrist 51.2291
lhand 15.4614 26.5379
lfingers 7.12502
lthumb 40.2858 51.6771
rfemur -5.96188 -16.4596 -0.979243
rtibia 57.2386
rfoot -22.1402 -18.4101
rtoes -23.6776
lfemur -24.7323 20.9962 6.26154
ltibia 49.126
lfoot -9.69196 -8.06609
ltoes -32.9944
24
root -31.2598 13.8489 -15.4818 3.14334 50.4372 0.296124
lowerback 27.6859 12.2798 -13.3099
upperback 9.70942 12.4635 -2.57072
thorax -5.89385 6.12458 0.279834
lowerneck 4.35275 -17.0132 -19.8045
upperneck -25.0792 -19.1624 43.5525
head 0.00870611 -11.4927 17.9044
rclavicle 4.47266e-014 -3.1408e-014
rhumerus -20.9179 17.9747 -97.9753
rradius 71.2541
rwrist -15.6435
rhand -20.1058 24.3652
rfingers 7.12502
rthumb 6.23769 -5.52299
lclavicle 4.47266e-014 -3.1408e-014
lhumerus -14.5062 -3.20103 75.4338
lradius 99.0592
lwrist 51.2747
lhand 15.0545 27.4283
lfingers 7.12502
lthumb 39.903 52.6836
rfemur -6.67716 -17.3065 -1.27407
rtibia 59.4038
rfoot -21.2023 -17.5551
rtoes -23.6136
lfemur -24.6728 21.4742 6.40266
ltibia 50.3181
lfoot -10.4214 -8.83196
ltoes -34.2313
25
root -31.1388 13.7989 -15.4215 2.31083 50.6841 -0.320297
lowerback 28.4747 12.5215 -13.9382
upperback 9.49686 12.4559 -2.42783
thorax -5.9223 6.12523 0.518798
lowerneck 4.79299 -17.0882 -19.7441
upperneck -25.2187 -19.2915 44.0169
head 0.0194336 -11.6616 18.1356
rclavicle 4.41302e-014 3.06128e-014
rhumerus -20.6406 16.7123 -97.3646
rradius 69.3283
rwrist -16.981
rhand -19.9451 24.5757
rfingers 7.12502
rthumb 6.39285 -5.30784
lclavicle 4.41302e-014 3.06128e-014
lhumerus -12.3555 -2.18222 75.9636
lradius 99.8707
lwrist 50.9966
lhand 14.8015 28.4039
lfingers 7.12502
lthumb 39.6648 53.7302
rfemur -7.18895 -17.8689 -1.02735
rtibia 61.4178
rfoot -20.5693 -16.7033
rtoes -24.1032
lfemur -24.3088 21.8446 7.17879
ltibia 51.3175
lfoot -10.945 -9.86517
ltoes -34.1245
26
root -31.0284 13.7455 -15.3677 1.36673 51.3938 -1.22937
lowerback 29.0655 12.3994 -13.964
upperback 9.75365 12.2344 -2.3339
thorax -5.86399 6.01441 0.650329
lowerneck 4.74367 -17.2042 -19.762
upperneck -25.1314 -19.4812 44.5541
head 0.230258 -11.8022 18.3031
rclavicle -4.69132e-014 4.96962e-014
rhumerus -20.2069 15.6573 -96.618
rradius 67.2749
rwrist -18.9083
rhand -19.7536 24.7939
rfingers 7.12502
rthumb 6.57771 -5.08398
lclavicle -4.69132e-014 4.96962e-014
lhumerus -10.0408 -1.27405 76.7334
lradius 100.918
lwrist 50.3568
lhand 13.9308 29.4241
lfingers 7.12502
lthumb 38.8443 54.9886
rfemur -7.65627 -18.6676 -0.555043
rtibia 63.3519
rfoot -20.1901 -15.646
rtoes -24.8583
lfemur -24.3711 21.8402 7.9859
ltibia 52.2067
lfoot -11.3158 -11.0257
ltoes -34.2909
27
root -30.9273 13.6877 -15.3215 0.431561 52.4529 -2.34662
lowerback 29.8855 12.0433 -13.4945
upperback 9.93596 11.8062 -2.42297
thorax -5.85186 5.82039 0.412336
lowerneck 4.40094 -17.4462 -19.376
upperneck -25.1122 -19.7295 45.1183
head 0.4452 -11.9725 18.3508
rclavicle 3.69739e-014 -1.19271e-015
rhumerus -19.6715 13.973 -96.0033
rradius 64.9524
rwrist -20.0609
rhand -19.5769 25.0523
rfingers 7.12502
rthumb 6.7483 -4.82017
lclavicle 3.69739e-014 -1.19271e-015
lhumerus -7.41478 -0.823838 77.4492
lradius 102.013
lwrist 48.9911
lhand 13.1147 29.7853
lfingers 7.12502
lthumb 38.0741 55.5643
rfemur -8.23469 -19.9313 -0.0475648
rtibia 65.2387
rfoot -19.7622 -14.3904
rtoes -25.6923
lfemur -24.9097 21.5188 8.70489
ltibia 52.9945
lfoot -11.8525 -11.7445
ltoes -37.3854
28
root -30.8304 13.6395 -15.2671 -0.480873 53.3603 -3.37577
lowerback 30.9021 11.7811 -13.2992
upperback 9.72853 11.3389 -2.43419
thorax -6.26028 5.61438 0.309629
lowerneck 4.88633 -17.402 -19.3503
upperneck -24.8834 -19.792 45.5567
head 0.526668 -12.0913 18.5933
rclavicle 2.14687e-014 -8.18993e-014
rhumerus -20.0459 12.2071 -95.5082
rradius 63.0015
rwrist -21.4451
rhand -19.3729 25.2976
rfingers 7.12502
rthumb 6.94517 -4.5685
lclavicle 2.14687e-014 -8.18993e-014
lhumerus -5.30751 -0.464823 78.4103
lradius 103.184
lwrist 47.1196
lhand 12.894 30.0667
lfingers 7.12502
lthumb 37.8658 55.9023
rfemur -8.83533 -20.8343 0.451854
rtibia 67.0682
rfoot -19.4388 -13.402
rtoes -26.4446
lfemur -25.2309 21.1924 9.42108
ltibia 53.6462
lfoot -12.7038 -12.1297
ltoes -40.2925
29
root -30.7311 13.6035 -15.1961 -1.12255 53.9116 -3.90145
lowerback 31.7045 11.7215 -13.7886
upperback 9.75398 10.99 -2.31199
thorax -6.56531 5.44717 0.688584
lowerneck 4.93391 -17.3546 -19.6393
upperneck -24.549 -19.8838 45.9832
head 0.774905 -12.1515 18.8031
rclavicle -8.18993e-014 6.12257e-014
rhumerus -20.3451 10.6762 -94.7073
rradius 61.0004
rwrist -22.4508
rhand -18.4651 25.175
rfingers 7.12502
rthumb 7.8214 -4.66033
lclavicle -8.18993e-014 6.12257e-014
lhumerus -2.92185 0.0871716 79.7222
lradius 104.411
lwrist 44.7664
lhand 13.182 30.4283
lfingers 7.12502
lthumb 38.1377 56.1899
rfemur -9.4488 -21.1128 0.818786
rtibia 68.855
rfoot -19.2084 -12.9048
rtoes -27.6527
lfemur -25.0193 21.0661 9.98843
ltibia 54.1206
lfoot -13.5414 -12.6525
ltoes -40.1857
